<?xml version="1.0" standalone="no"?>
<!DOCTYPE svg PUBLIC "-//W3C//DTD SVG 20010904//EN"
 "http://www.w3.org/TR/2001/REC-SVG-20010904/DTD/svg10.dtd">
<svg version="1.0" xmlns="http://www.w3.org/2000/svg"
 width="70.000000pt" height="70.000000pt" viewBox="0 0 70.000000 70.000000"
 preserveAspectRatio="xMidYMid meet">
<metadata>
Created by potrace 1.14, written by Peter Selinger 2001-2017
</metadata>
<g transform="translate(0.000000,70.000000) scale(0.100000,-0.100000)"
fill="#000000" stroke="none">
<path d="M70 560 c0 -11 54 -106 120 -210 66 -104 120 -194 120 -200 0 -5 14
-10 30 -10 20 0 30 5 30 15 0 8 4 15 8 15 4 0 21 25 37 55 17 30 33 55 36 55
4 0 9 8 13 18 3 9 11 26 18 36 7 11 37 58 67 105 30 47 58 88 62 89 5 2 9 15
9 28 l0 24 -275 0 c-269 0 -275 0 -275 -20z m220 -34 c0 -7 -7 -19 -15 -26 -8
-7 -15 -18 -15 -24 -1 -6 -11 -24 -24 -40 l-24 -29 -34 54 c-19 30 -38 60 -42
67 -5 9 12 12 73 12 62 0 81 -3 81 -14z m235 -33 c-52 -91 -53 -91 -97 -26
-21 32 -38 61 -38 66 0 4 36 7 81 7 l81 0 -27 -47z m-95 -132 c0 -17 -79 -141
-90 -141 -10 0 -90 125 -90 141 0 6 21 42 46 81 l46 71 44 -69 c24 -38 44 -75
44 -83z"/>
</g>
</svg>
